<svg width="59" height="58" viewBox="0 0 59 58" fill="none" xmlns="http://www.w3.org/2000/svg">
<g id="ph:plant-thin">
<path id="Vector" d="M55.4474 9.08967C55.4339 8.86836 55.3398 8.65967 55.1828 8.5031C55.0258 8.34654 54.8169 8.25295 54.5955 8.24006C43.2108 7.56037 34.1052 10.9815 30.2355 17.3683C27.5984 21.7228 27.7048 26.8658 30.5165 31.9158C28.5323 34.0955 27.222 36.8033 26.7442 39.7119L21.4223 34.3899C23.3775 30.7649 23.4183 27.0651 21.5174 23.925C18.7035 19.2782 12.1105 16.7951 3.875 17.2776C3.65483 17.2915 3.44729 17.3853 3.29129 17.5413C3.13529 17.6973 3.04156 17.9048 3.02766 18.125C2.54508 26.356 5.0282 32.949 9.675 35.7629C11.1664 36.6784 12.8822 37.1631 14.6322 37.163C16.5639 37.1302 18.4569 36.6162 20.1399 35.6677L26.5312 42.0658V48.9375C26.5312 49.1778 26.6267 49.4083 26.7967 49.5783C26.9666 49.7482 27.1971 49.8437 27.4375 49.8437C27.6779 49.8437 27.9084 49.7482 28.0783 49.5783C28.2483 49.4083 28.3437 49.1778 28.3437 48.9375V42.2561C28.3352 38.9104 29.5698 35.6807 31.8079 33.1936C34.4111 34.6346 37.0347 35.3596 39.5654 35.3596C41.9494 35.36 44.287 34.7005 46.3192 33.4542C52.7037 29.5822 56.118 20.4767 55.4474 9.08967ZM10.613 34.2109C6.70023 31.8456 4.55469 26.211 4.79937 19.0494C11.961 18.8047 17.5956 20.9502 19.9609 24.8629C21.4291 27.2894 21.454 30.1577 20.0652 33.0396L13.5764 26.5463C13.404 26.3901 13.1782 26.3062 12.9456 26.3119C12.713 26.3176 12.4916 26.4126 12.3271 26.5771C12.1626 26.7416 12.0677 26.963 12.0619 27.1956C12.0562 27.4281 12.1401 27.654 12.2963 27.8264L18.7919 34.3219C15.9077 35.7108 13.0395 35.6858 10.613 34.2109ZM45.379 31.9C41.7427 34.1022 37.4289 34.0727 33.1265 31.8433L46.2037 18.7639C46.3666 18.5927 46.4562 18.3646 46.4534 18.1283C46.4506 17.892 46.3556 17.6661 46.1886 17.4988C46.0216 17.3316 45.7959 17.2362 45.5596 17.2329C45.3233 17.2297 45.0951 17.3189 44.9236 17.4815L31.8441 30.561C29.6148 26.2563 29.5785 21.9516 31.7875 18.3085C35.2109 12.6444 43.3603 9.57904 53.6802 10.0072C54.1107 20.3272 51.034 28.4766 45.379 31.9Z" fill="black"/>
</g>
</svg>
