<svg width="22" height="23" viewBox="0 0 22 23" fill="none" xmlns="http://www.w3.org/2000/svg">
<g id="teenyicons:twitter-outline" clip-path="url(#clip0_1_47)">
<path id="Vector" d="M21.2344 2.69995L21.9677 2.65155C21.9582 2.50758 21.9064 2.36962 21.8189 2.25494C21.7313 2.14025 21.6119 2.05395 21.4755 2.00682C21.3391 1.95969 21.1919 1.95384 21.0522 1.99C20.9125 2.02615 20.7866 2.10271 20.6903 2.21008L21.2344 2.69995ZM20.504 7.03981C20.504 6.84532 20.4267 6.6588 20.2892 6.52127C20.1517 6.38374 19.9651 6.30648 19.7707 6.30648C19.5762 6.30648 19.3896 6.38374 19.2521 6.52127C19.1146 6.6588 19.0373 6.84532 19.0373 7.03981H20.504ZM0.733317 18.8333V18.0999C0.575854 18.0998 0.422511 18.1502 0.295972 18.244C0.169433 18.3377 0.0764194 18.4696 0.0306902 18.6203C-0.015039 18.771 -0.0110547 18.9324 0.0420538 19.0806C0.0951623 19.2289 0.194574 19.3561 0.325583 19.4434L0.733317 18.8333ZM2.19705 2.69995L2.88492 2.44328C2.83493 2.30939 2.74691 2.19301 2.63167 2.10848C2.51643 2.02394 2.379 1.97491 2.23627 1.96744C2.09355 1.95996 1.95175 1.99435 1.8283 2.06638C1.70486 2.13841 1.60516 2.24494 1.54145 2.37288L2.19705 2.69995ZM8.05492 15.8999L8.57412 16.4177C8.6622 16.3293 8.72629 16.2199 8.7603 16.0999C8.79432 15.9798 8.79715 15.8531 8.76851 15.7317C8.73988 15.6102 8.68073 15.4981 8.59667 15.4059C8.5126 15.3137 8.4064 15.2445 8.28812 15.2047L8.05492 15.8999ZM18.6501 4.12701L18.1075 4.61981L18.3715 4.91168L18.7601 4.85301L18.6501 4.12701ZM20.504 2.74835C20.5788 3.88941 20.5084 4.58168 20.3236 5.10381C20.1447 5.60981 19.8308 6.02635 19.2632 6.57048L20.2781 7.62941C20.9205 7.01341 21.4163 6.40915 21.7067 5.59368C21.9897 4.79288 22.0484 3.86595 21.9677 2.65155L20.504 2.74835ZM20.504 8.10755V7.03981H19.0373V8.10901H20.504V8.10755ZM10.252 7.16008V8.56661H11.7186V7.16008H10.252ZM10.252 8.56661V9.29995H11.7186V8.56661H10.252ZM15.4367 1.96661C14.755 1.967 14.0801 2.10164 13.4505 2.36284C12.8209 2.62405 12.249 3.0067 11.7672 3.48896C11.2855 3.97122 10.9035 4.54363 10.643 5.17353C10.3825 5.80342 10.2487 6.47845 10.249 7.16008H11.7157C11.7153 6.67093 11.8113 6.1865 11.9982 5.73446C12.1851 5.28241 12.4592 4.87162 12.8049 4.52553C13.1505 4.17945 13.561 3.90486 14.0128 3.71744C14.4647 3.53003 14.949 3.43347 15.4381 3.43328V1.96661H15.4367ZM19.0359 8.10755C19.0373 14.4377 13.9143 19.5666 7.59732 19.5666V21.0333C14.7253 21.0333 20.504 15.2458 20.504 8.10755H19.0359ZM1.51065 2.95661C2.30852 5.08621 5.30052 9.29995 10.9853 9.29995V7.83328C6.12185 7.83328 3.55078 4.22528 2.88345 2.44328L1.51065 2.95661ZM1.54145 2.37288C0.00584974 5.44701 -0.230283 8.43021 0.88585 10.9705C1.99905 13.5034 4.39412 15.4511 7.82318 16.5951L8.28812 15.2047C5.12745 14.1487 3.12838 12.4298 2.22785 10.3794C1.33025 8.33635 1.46078 5.81808 2.85412 3.02701L1.54145 2.37288ZM7.53572 15.3822C6.65278 16.2666 3.99812 18.0999 0.733317 18.0999V19.5666C4.49678 19.5666 7.50492 17.4898 8.57412 16.4177L7.53572 15.3822ZM19.1943 3.63568C18.7201 3.10981 18.1407 2.68948 17.4936 2.40195C16.8465 2.11441 16.1462 1.96609 15.4381 1.96661V3.43328C16.4956 3.43328 17.4475 3.88941 18.1075 4.61981L19.1943 3.63568ZM18.7601 4.85301C19.9284 4.66215 20.9953 4.07483 21.7815 3.18981L20.6903 2.21008C20.1311 2.84183 19.3721 3.26271 18.5401 3.40248L18.7601 4.85301ZM0.325583 19.4434C2.73238 21.0479 5.25505 21.0333 7.59732 21.0333V19.5666C5.20665 19.5666 3.12692 19.5505 1.14105 18.2231L0.325583 19.4434Z" fill="white"/>
</g>
<defs>
<clipPath id="clip0_1_47">
<rect width="22" height="22" fill="white" transform="translate(0 0.5)"/>
</clipPath>
</defs>
</svg>
